<svg width="31" height="31" viewBox="0 0 31 31" fill="none" xmlns="http://www.w3.org/2000/svg">
<path d="M10.5516 3.15842C12.1358 3.77963 13.6672 4.6001 15.1106 5.60225C15.2749 5.7136 15.4627 5.77221 15.6505 5.77221C15.8382 5.77221 16.026 5.7136 16.1903 5.60225C17.6337 4.6001 19.1651 3.77377 20.7493 3.15256C21.1072 3.0119 21.3478 2.66027 21.3419 2.27348C21.3419 1.88668 21.1014 1.54091 20.7376 1.40612C17.5691 0.204714 13.7318 0.204714 10.5692 1.40612C10.2113 1.54091 9.96484 1.89254 9.96484 2.27348C9.96484 2.65441 10.1878 3.01776 10.5516 3.15842Z" fill="white"/>
<path d="M24.1597 3.16374C23.8604 2.95862 23.479 2.94104 23.1563 3.12271C21.4019 4.13072 19.7062 5.28524 18.1044 6.55698C17.8931 6.72693 17.7641 6.97893 17.7523 7.24852C17.7406 7.5181 17.8462 7.78183 18.0398 7.96936C21.3608 11.1282 25.961 20.8156 27.0171 25.2696C24.7288 21.4017 19.6241 12.3003 16.2854 9.18835C15.9275 8.8543 15.3642 8.8543 15.0063 9.18835C11.6618 12.3003 6.57467 21.4075 4.28634 25.2813C5.34249 20.8273 9.9309 11.1282 13.2519 7.96936C13.4514 7.78183 13.557 7.5181 13.5453 7.24852C13.5336 6.97893 13.4045 6.72693 13.1932 6.55698C11.5914 5.28524 9.88983 4.13072 8.1413 3.12271C7.83033 2.94104 7.4372 2.95862 7.13796 3.16374C3.06002 5.97093 0.625 10.5832 0.625 15.506C0.625 19.1043 1.92172 22.5738 4.28634 25.2813C7.11449 28.5984 11.2511 30.5089 15.6459 30.5089C20.0407 30.5089 24.1831 28.6042 27.0171 25.2755C29.37 22.5796 30.6667 19.1102 30.6667 15.506C30.6667 10.5832 28.2317 5.97093 24.1597 3.16374Z" fill="white"/>
</svg>
