<svg width="31" height="31" viewBox="0 0 31 31" fill="none" xmlns="http://www.w3.org/2000/svg">
<path d="M15.7734 0.508881C24.0925 0.508881 30.8369 7.22461 30.8369 15.5089C30.8369 23.7932 24.0925 30.5089 15.7734 30.5089C9.03975 30.5087 3.33756 26.1087 1.40918 20.0382C2.1487 20.4543 4.89445 21.5934 5.04395 21.6407L7.05859 22.3048C7.96411 24.981 10.8838 26.4155 13.5713 25.5108C15.3242 24.9236 16.622 23.4457 16.9756 21.6407L22.7676 17.5255C26.1767 17.203 28.6751 14.1984 28.3555 10.8097C28.055 7.6763 25.4256 5.27011 22.2539 5.23642C18.8595 5.24146 16.0992 7.95595 16.0557 11.3253L12.5791 15.547C11.4169 15.3785 10.2349 15.6282 9.24707 16.2491L5.42188 14.5265C5.26207 14.4543 2.27028 13.3666 2.125 13.4581C1.97479 13.5543 1.50823 13.5889 1.50781 13.7667L1.9082 20.0392C1.65339 19.9648 1.47713 19.9241 1.36816 19.9044C0.940962 18.5143 0.710938 17.0383 0.710938 15.5089C0.710938 7.22475 7.45461 0.509115 15.7734 0.508881ZM12.5938 18.1026C12.7196 17.8476 13.0247 17.7423 13.2861 17.8673C14.826 18.6086 15.4752 20.447 14.7295 21.9825C14.3711 22.7189 13.7366 23.2823 12.957 23.5518C12.6182 23.6625 12.2743 23.7198 11.9209 23.7198C11.4562 23.7198 10.9964 23.6142 10.5801 23.4122C10.3234 23.287 10.2169 22.9837 10.3428 22.7237C10.4687 22.4687 10.7737 22.3623 11.0352 22.4874C12.0472 23.0072 13.2964 22.6174 13.8193 21.6065C14.342 20.5959 13.9502 19.3589 12.9336 18.839C12.8997 18.8197 12.865 18.8055 12.8311 18.7911C12.5746 18.6659 12.468 18.3624 12.5938 18.1026ZM22.2549 8.3165C23.9664 8.31669 25.3534 9.69633 25.3535 11.3976C25.3533 13.0987 23.9663 14.4774 22.2549 14.4776C20.5433 14.4776 19.1555 13.0988 19.1553 11.3976C19.1554 9.69621 20.5432 8.3165 22.2549 8.3165ZM22.2549 9.34189C21.113 9.34199 20.1876 10.2625 20.1875 11.3976C20.1877 12.5325 21.1131 13.4521 22.2549 13.4522C23.3968 13.4522 24.323 12.5325 24.3232 11.3976C24.3232 10.2625 23.3968 9.34192 22.2549 9.34189Z" fill="#FFB548"/>
</svg>
